<svg width="99" height="33" viewBox="0 0 99 33" fill="none" xmlns="http://www.w3.org/2000/svg">
<path d="M90.7068 0.000106768H7.85275C7.55073 0.000106768 7.25234 0.000106768 6.95113 0.00174935C6.69898 0.00339194 6.44885 0.00816365 6.19428 0.0121798C5.64125 0.0186695 5.08951 0.0671869 4.54387 0.15731C3.999 0.249396 3.4712 0.423003 2.97831 0.672261C2.48603 0.923627 2.03622 1.25025 1.6452 1.64029C1.25212 2.02922 0.924459 2.47878 0.674815 2.97168C0.424483 3.46359 0.250901 3.99072 0.160066 4.53486C0.0683677 5.07831 0.0190238 5.62803 0.0124775 6.17909C0.00483452 6.4309 0.0040274 6.68354 0 6.93538V25.919C0.0040274 26.174 0.00483452 26.421 0.0124775 26.6761C0.0190258 27.2271 0.0683697 27.7768 0.160066 28.3203C0.250651 28.8647 0.424242 29.3921 0.674815 29.8842C0.924345 30.3755 1.25205 30.8233 1.6452 31.2101C2.03474 31.6018 2.48484 31.9287 2.97831 32.1781C3.47119 32.428 3.99894 32.6027 4.54387 32.6962C5.08961 32.7856 5.64128 32.8341 6.19428 32.8414C6.44885 32.847 6.69898 32.8502 6.95113 32.8502C7.25234 32.8518 7.55075 32.8518 7.85275 32.8518H90.7068C91.0028 32.8518 91.3036 32.8518 91.5996 32.8502C91.8505 32.8502 92.1079 32.847 92.3589 32.8414C92.9108 32.8345 93.4615 32.786 94.0061 32.6962C94.5528 32.602 95.0824 32.4274 95.5777 32.1781C96.0707 31.9285 96.5204 31.6017 96.9096 31.2101C97.3017 30.8218 97.6301 30.3744 97.8827 29.8842C98.1314 29.3918 98.3034 28.8644 98.3926 28.3203C98.4845 27.7768 98.5356 27.2272 98.5455 26.6761C98.5487 26.421 98.5487 26.174 98.5487 25.919C98.5551 25.6206 98.5551 25.3238 98.5551 25.0206V7.83206C98.5551 7.5313 98.5551 7.23294 98.5487 6.93538C98.5487 6.68354 98.5487 6.4309 98.5455 6.17905C98.5356 5.62795 98.4845 5.07835 98.3926 4.53483C98.3031 3.991 98.1312 3.46391 97.8827 2.97164C97.3744 1.98369 96.5682 1.1795 95.5777 0.672187C95.0824 0.423539 94.5527 0.249977 94.0061 0.157237C93.4616 0.0667159 92.9109 0.0181816 92.3589 0.0120648C92.1079 0.00805688 91.8505 0.00324411 91.5996 0.00164259C91.3036 0 91.0028 0 90.7068 0V0.000106768Z" fill="#A6A6A6"/>
<path d="M6.95538 32.1332C6.70444 32.1332 6.45957 32.13 6.21061 32.1244C5.69485 32.1177 5.18031 32.0729 4.67118 31.9905C4.19645 31.9089 3.73657 31.7573 3.3067 31.5405C2.88077 31.3255 2.49228 31.0436 2.15613 30.7055C1.81511 30.3715 1.5312 29.9841 1.31564 29.5586C1.09771 29.1304 0.946883 28.6714 0.868425 28.1976C0.783697 27.6885 0.737855 27.1737 0.731296 26.6576C0.726074 26.4844 0.719238 25.9077 0.719238 25.9077V6.93539C0.719238 6.93539 0.726519 6.36754 0.731337 6.20072C0.737618 5.6855 0.783193 5.17151 0.867667 4.6632C0.94627 4.1881 1.09721 3.72776 1.31526 3.29813C1.53003 2.87295 1.81236 2.48524 2.15133 2.15C2.48991 1.81158 2.87964 1.52822 3.30629 1.31025C3.73518 1.09416 4.19419 0.943565 4.66796 0.863519C5.17876 0.780212 5.69509 0.735173 6.21263 0.728778L6.95578 0.71875H91.5958L92.3478 0.72918C92.8606 0.735257 93.3723 0.779895 93.8784 0.862714C94.357 0.943764 94.8208 1.09541 95.2545 1.31266C96.1093 1.75192 96.8048 2.44688 97.2435 3.30013C97.4581 3.7268 97.6067 4.18338 97.6843 4.65438C97.7698 5.16686 97.8176 5.68489 97.8275 6.20433C97.8299 6.43692 97.8299 6.68676 97.8299 6.93539C97.8364 7.24338 97.8364 7.53652 97.8364 7.83207V25.0206C97.8364 25.319 97.8364 25.6102 97.8299 25.9037C97.8299 26.1708 97.8299 26.4154 97.8266 26.6672C97.817 27.1774 97.77 27.6862 97.6859 28.1895C97.609 28.6667 97.459 29.1293 97.2411 29.5611C97.0241 29.9819 96.7418 30.366 96.4047 30.6991C96.0682 31.039 95.6791 31.3225 95.2522 31.5389C94.8196 31.7574 94.3565 31.9096 93.8784 31.9905C93.3693 32.0734 92.8547 32.1182 92.3389 32.1244C92.0977 32.13 91.8451 32.1332 91.5998 32.1332L90.7071 32.1348L6.95538 32.1332Z" fill="black"/>
<path d="M20.3994 16.6729C20.4083 15.9874 20.5909 15.3153 20.9302 14.7191C21.2696 14.1229 21.7547 13.6219 22.3403 13.2629C21.9683 12.733 21.4774 12.297 20.9068 11.9893C20.3362 11.6817 19.7015 11.511 19.0532 11.4908C17.6702 11.346 16.3294 12.3161 15.6246 12.3161C14.9062 12.3161 13.8211 11.5052 12.6527 11.5291C11.8969 11.5535 11.1603 11.7727 10.5147 12.1653C9.8691 12.5579 9.3365 13.1106 8.96879 13.7695C7.37595 16.5196 8.56406 20.5612 10.0899 22.7841C10.8533 23.8726 11.7455 25.0885 12.9129 25.0454C14.0552 24.9981 14.4819 24.319 15.8609 24.319C17.227 24.319 17.6273 25.0454 18.8184 25.018C20.0442 24.9981 20.8166 23.9246 21.5532 22.8258C22.1017 22.0502 22.5237 21.193 22.8037 20.286C22.0916 19.9856 21.4838 19.4828 21.0563 18.8403C20.6287 18.1978 20.4003 17.444 20.3994 16.6729Z" fill="white"/>
<path d="M18.1499 10.0284C18.8183 9.22833 19.1476 8.19993 19.0679 7.16162C18.0467 7.26857 17.1035 7.75523 16.4261 8.52465C16.0949 8.90052 15.8412 9.33781 15.6796 9.81151C15.518 10.2852 15.4515 10.786 15.4841 11.2853C15.9949 11.2906 16.5002 11.1802 16.9619 10.9625C17.4237 10.7448 17.8299 10.4254 18.1499 10.0284Z" fill="white"/>
<path d="M34.8403 22.2894H30.9419L30.0057 25.046H28.3545L32.047 14.8472H33.7626L37.4551 25.046H35.7757L34.8403 22.2894ZM31.3457 21.0173H34.4358L32.9125 16.5435H32.8698L31.3457 21.0173Z" fill="white"/>
<path d="M45.4292 21.3287C45.4292 23.6394 44.189 25.124 42.3174 25.124C41.8433 25.1487 41.3718 25.0398 40.9568 24.8097C40.5419 24.5796 40.2004 24.2377 39.9713 23.823H39.9358V27.506H38.4053V17.6104H39.8868V18.8472H39.915C40.1546 18.4345 40.5019 18.0943 40.92 17.8629C41.3381 17.6314 41.8113 17.5173 42.2892 17.5326C44.1817 17.5326 45.4292 19.0244 45.4292 21.3287ZM43.856 21.3287C43.856 19.8233 43.0758 18.8335 41.8855 18.8335C40.716 18.8335 39.9294 19.8441 39.9294 21.3287C39.9294 22.8269 40.716 23.8303 41.8855 23.8303C43.0758 23.8303 43.856 22.8478 43.856 21.3287Z" fill="white"/>
<path d="M53.6362 21.3287C53.6362 23.6394 52.396 25.124 50.5244 25.124C50.0503 25.1487 49.5788 25.0398 49.1639 24.8097C48.749 24.5796 48.4074 24.2377 48.1783 23.823H48.1429V27.506H46.6123V17.6104H48.0938V18.8472H48.122C48.3616 18.4345 48.7089 18.0943 49.127 17.8628C49.5451 17.6314 50.0183 17.5172 50.4962 17.5326C52.3888 17.5326 53.6362 19.0244 53.6362 21.3287ZM52.063 21.3287C52.063 19.8233 51.2829 18.8335 50.0925 18.8335C48.9231 18.8335 48.1365 19.8441 48.1365 21.3287C48.1365 22.8269 48.9231 23.8303 50.0925 23.8303C51.2829 23.8303 52.063 22.8478 52.063 21.3287H52.063Z" fill="white"/>
<path d="M59.0604 22.2045C59.1739 23.2158 60.1591 23.8799 61.5055 23.8799C62.7956 23.8799 63.7237 23.2158 63.7237 22.3039C63.7237 21.5123 63.164 21.0383 61.8385 20.7134L60.513 20.395C58.635 19.9427 57.7631 19.0668 57.7631 17.6456C57.7631 15.8859 59.3009 14.6772 61.4846 14.6772C63.6457 14.6772 65.1272 15.8859 65.1771 17.6456H63.632C63.5396 16.6278 62.6958 16.0135 61.4629 16.0135C60.2299 16.0135 59.3862 16.635 59.3862 17.5397C59.3862 18.2608 59.925 18.6851 61.2433 19.0099L62.3701 19.2858C64.4685 19.7806 65.3404 20.6212 65.3404 22.113C65.3404 24.021 63.8162 25.2161 61.3921 25.2161C59.124 25.2161 57.5926 24.0491 57.4937 22.2044L59.0604 22.2045Z" fill="white"/>
<path d="M68.644 15.8506V17.6103H70.0619V18.819H68.644V22.9182C68.644 23.555 68.9279 23.8518 69.5512 23.8518C69.7196 23.8488 69.8876 23.8371 70.0547 23.8165V25.0179C69.7745 25.0701 69.4896 25.0938 69.2046 25.0885C67.6949 25.0885 67.1062 24.5231 67.1062 23.081V18.819H66.022V17.6103H67.1061V15.8506H68.644Z" fill="white"/>
<path d="M70.8828 21.3287C70.8828 18.9892 72.2646 17.519 74.4193 17.519C76.5812 17.519 77.9566 18.9892 77.9566 21.3287C77.9566 23.6747 76.5885 25.1385 74.4193 25.1385C72.2509 25.1385 70.8828 23.6747 70.8828 21.3287ZM76.3971 21.3287C76.3971 19.7239 75.6595 18.7766 74.4193 18.7766C73.1791 18.7766 72.4423 19.7311 72.4423 21.3287C72.4423 22.9401 73.1791 23.8801 74.4193 23.8801C75.6595 23.8801 76.397 22.9401 76.397 21.3287H76.3971Z" fill="white"/>
<path d="M79.2188 17.6104H80.6786V18.876H80.714C80.8127 18.4807 81.0449 18.1314 81.3716 17.8867C81.6982 17.6421 82.0993 17.517 82.5075 17.5325C82.6839 17.5319 82.8598 17.551 83.0319 17.5895V19.0171C82.8093 18.9493 82.577 18.9181 82.3442 18.9249C82.1219 18.9159 81.9002 18.955 81.6944 19.0395C81.4887 19.124 81.3037 19.2519 81.1522 19.4144C81.0006 19.577 80.8862 19.7703 80.8166 19.9811C80.7471 20.1919 80.7241 20.4152 80.7493 20.6356V25.0461H79.2188L79.2188 17.6104Z" fill="white"/>
<path d="M90.0886 22.8623C89.8827 24.2121 88.5645 25.1385 86.8779 25.1385C84.7087 25.1385 83.3623 23.6892 83.3623 21.364C83.3623 19.0317 84.7159 17.519 86.8135 17.519C88.8766 17.519 90.1739 18.9322 90.1739 21.1868V21.7097H84.9074V21.802C84.8831 22.0756 84.9174 22.3513 85.0082 22.6107C85.0989 22.8701 85.2439 23.1073 85.4337 23.3065C85.6234 23.5057 85.8534 23.6623 86.1085 23.7661C86.3636 23.8698 86.638 23.9182 86.9133 23.9081C87.275 23.9419 87.6379 23.8584 87.9482 23.6699C88.2585 23.4815 88.4994 23.1982 88.6353 22.8623L90.0886 22.8623ZM84.9146 20.643H88.6425C88.6562 20.3969 88.6188 20.1507 88.5326 19.9198C88.4464 19.6888 88.3133 19.4781 88.1415 19.3009C87.9698 19.1237 87.7632 18.9838 87.5346 18.89C87.3061 18.7962 87.0606 18.7505 86.8135 18.7558C86.5643 18.7543 86.3172 18.8021 86.0866 18.8963C85.8559 18.9905 85.6463 19.1294 85.4697 19.3048C85.2932 19.4803 85.1532 19.6889 85.058 19.9186C84.9627 20.1482 84.914 20.3945 84.9146 20.643V20.643Z" fill="white"/>
<path d="M31.1535 7.1706C31.4744 7.14764 31.7964 7.19598 32.0963 7.31214C32.3961 7.42829 32.6664 7.60937 32.8876 7.84231C33.1088 8.07525 33.2755 8.35424 33.3754 8.65917C33.4754 8.96409 33.5063 9.28734 33.4658 9.6056C33.4658 11.1712 32.6173 12.0711 31.1535 12.0711H29.3784V7.1706H31.1535ZM30.1417 11.3781H31.0682C31.2975 11.3918 31.527 11.3543 31.7399 11.2683C31.9529 11.1824 32.1439 11.0502 32.2991 10.8814C32.4544 10.7126 32.5699 10.5114 32.6373 10.2924C32.7048 10.0734 32.7224 9.8422 32.6889 9.61559C32.7199 9.38987 32.7005 9.1601 32.6321 8.94273C32.5636 8.72536 32.4478 8.52579 32.2929 8.3583C32.138 8.19081 31.9479 8.05956 31.7362 7.97395C31.5245 7.88835 31.2964 7.8505 31.0682 7.86312H30.1417V11.3781Z" fill="white"/>
<path d="M34.3281 10.2201C34.3048 9.97708 34.3327 9.73187 34.41 9.50021C34.4872 9.26855 34.6122 9.05555 34.7769 8.87488C34.9416 8.69421 35.1423 8.54986 35.3662 8.45108C35.5901 8.3523 35.8322 8.30127 36.077 8.30127C36.3219 8.30127 36.564 8.3523 36.7879 8.45108C37.0118 8.54986 37.2125 8.69421 37.3772 8.87488C37.5419 9.05555 37.6668 9.26855 37.7441 9.50021C37.8214 9.73187 37.8493 9.97708 37.826 10.2201C37.8497 10.4634 37.8222 10.709 37.7451 10.941C37.668 11.173 37.5431 11.3864 37.3784 11.5674C37.2137 11.7485 37.0128 11.8931 36.7887 11.9921C36.5646 12.0911 36.3222 12.1423 36.077 12.1423C35.8319 12.1423 35.5895 12.0911 35.3654 11.9921C35.1413 11.8931 34.9404 11.7485 34.7757 11.5674C34.611 11.3864 34.4861 11.173 34.409 10.941C34.3319 10.709 34.3043 10.4634 34.3281 10.2201ZM37.0732 10.2201C37.0732 9.41848 36.712 8.94969 36.0782 8.94969C35.442 8.94969 35.0842 9.41848 35.0842 10.2201C35.0842 11.0282 35.4421 11.4934 36.0782 11.4934C36.712 11.4934 37.0732 11.025 37.0732 10.2201H37.0732Z" fill="white"/>
<path d="M42.4757 12.0713H41.7164L40.95 9.34753H40.8921L40.1288 12.0713H39.3768L38.3545 8.37305H39.0969L39.7612 11.195H39.8159L40.5784 8.37305H41.2805L42.043 11.195H42.1009L42.762 8.37305H43.4939L42.4757 12.0713Z" fill="white"/>
<path d="M44.354 8.37288H45.0586V8.96037H45.1133C45.206 8.74937 45.3625 8.57248 45.5609 8.45438C45.7593 8.33627 45.9897 8.28283 46.22 8.30149C46.4004 8.28796 46.5816 8.31509 46.7501 8.38088C46.9186 8.44666 47.0701 8.54941 47.1934 8.68151C47.3167 8.81361 47.4086 8.97167 47.4623 9.144C47.516 9.31632 47.5301 9.49848 47.5036 9.67699V12.0711H46.7717V9.86027C46.7717 9.26596 46.5127 8.9704 45.9714 8.9704C45.8489 8.96471 45.7266 8.98551 45.6129 9.03136C45.4992 9.07721 45.3968 9.14704 45.3127 9.23606C45.2286 9.32507 45.1648 9.43117 45.1256 9.54708C45.0865 9.66299 45.0729 9.78597 45.0859 9.90759V12.0711H44.354L44.354 8.37288Z" fill="white"/>
<path d="M48.6694 6.9292H49.4013V12.0711H48.6694V6.9292Z" fill="white"/>
<path d="M50.4189 10.2202C50.3956 9.97714 50.4235 9.73191 50.5008 9.50024C50.5781 9.26857 50.7031 9.05557 50.8678 8.87489C51.0325 8.69422 51.2332 8.54986 51.4571 8.45108C51.6811 8.3523 51.9232 8.30127 52.168 8.30127C52.4129 8.30127 52.655 8.3523 52.8789 8.45108C53.1029 8.54986 53.3036 8.69422 53.4683 8.87489C53.633 9.05557 53.758 9.26857 53.8353 9.50024C53.9126 9.73191 53.9405 9.97714 53.9172 10.2202C53.9409 10.4635 53.9133 10.709 53.8362 10.9411C53.7591 11.1731 53.6342 11.3865 53.4695 11.5675C53.3047 11.7485 53.1038 11.8932 52.8797 11.9922C52.6556 12.0912 52.4132 12.1423 52.168 12.1423C51.9229 12.1423 51.6805 12.0912 51.4564 11.9922C51.2322 11.8932 51.0313 11.7485 50.8666 11.5675C50.7019 11.3865 50.577 11.1731 50.4999 10.9411C50.4227 10.709 50.3952 10.4635 50.4189 10.2202ZM53.164 10.2202C53.164 9.41855 52.8028 8.94976 52.169 8.94976C51.5328 8.94976 51.175 9.41855 51.175 10.2202C51.175 11.0283 51.5329 11.4934 52.169 11.4934C52.8028 11.4934 53.164 11.025 53.164 10.2202H53.164Z" fill="white"/>
<path d="M54.6875 11.025C54.6875 10.3593 55.1846 9.97553 56.0669 9.92099L57.0714 9.86325V9.54403C57.0714 9.15344 56.8124 8.93288 56.3122 8.93288C55.9036 8.93288 55.6205 9.08246 55.5392 9.34393H54.8307C54.9055 8.7087 55.5047 8.30127 56.346 8.30127C57.2757 8.30127 57.8001 8.76284 57.8001 9.54403V12.0709H57.0956V11.5511H57.0377C56.9201 11.7376 56.7551 11.8896 56.5594 11.9916C56.3636 12.0936 56.1443 12.142 55.9237 12.1318C55.768 12.148 55.6107 12.1314 55.4618 12.0832C55.3129 12.035 55.1758 11.9562 55.0593 11.8519C54.9429 11.7476 54.8496 11.6202 54.7856 11.4777C54.7215 11.3353 54.6881 11.1811 54.6875 11.025ZM57.0714 10.709V10.3998L56.1658 10.4576C55.6551 10.4916 55.4234 10.6649 55.4234 10.9909C55.4234 11.3238 55.713 11.5175 56.1111 11.5175C56.2278 11.5292 56.3456 11.5175 56.4576 11.4829C56.5697 11.4483 56.6736 11.3917 56.7631 11.3162C56.8527 11.2408 56.9262 11.1482 56.9792 11.0439C57.0321 10.9395 57.0635 10.8257 57.0714 10.709Z" fill="white"/>
<path d="M58.7622 10.2204C58.7622 9.05182 59.3646 8.31153 60.3016 8.31153C60.5334 8.30088 60.7634 8.35624 60.9648 8.47114C61.1662 8.58603 61.3306 8.75571 61.4389 8.96035H61.4936V6.9292H62.2255V12.0711H61.5242V11.4868H61.4663C61.3496 11.6901 61.1795 11.8576 60.9742 11.9714C60.7689 12.0851 60.5363 12.1407 60.3016 12.132C59.3582 12.1321 58.7622 11.3918 58.7622 10.2204ZM59.5183 10.2204C59.5183 11.0048 59.8891 11.4768 60.5092 11.4768C61.126 11.4768 61.5073 10.998 61.5073 10.2236C61.5073 9.45284 61.122 8.9672 60.5092 8.9672C59.8931 8.9672 59.5182 9.44241 59.5182 10.2204H59.5183Z" fill="white"/>
<path d="M65.2539 10.2201C65.2306 9.97708 65.2584 9.73187 65.3357 9.50021C65.413 9.26855 65.538 9.05555 65.7027 8.87488C65.8673 8.69421 66.0681 8.54986 66.292 8.45108C66.5159 8.3523 66.758 8.30127 67.0028 8.30127C67.2476 8.30127 67.4898 8.3523 67.7137 8.45108C67.9376 8.54986 68.1383 8.69421 68.303 8.87488C68.4676 9.05555 68.5926 9.26855 68.6699 9.50021C68.7472 9.73187 68.7751 9.97708 68.7518 10.2201C68.7755 10.4634 68.748 10.709 68.6709 10.941C68.5938 11.173 68.4689 11.3864 68.3042 11.5674C68.1395 11.7485 67.9386 11.8931 67.7145 11.9921C67.4903 12.0911 67.2479 12.1423 67.0028 12.1423C66.7577 12.1423 66.5153 12.0911 66.2912 11.9921C66.067 11.8931 65.8662 11.7485 65.7015 11.5674C65.5367 11.3864 65.4118 11.173 65.3347 10.941C65.2577 10.709 65.2301 10.4634 65.2539 10.2201ZM67.9989 10.2201C67.9989 9.41848 67.6378 8.94969 67.004 8.94969C66.3678 8.94969 66.0099 9.41848 66.0099 10.2201C66.0099 11.0282 66.3679 11.4934 67.004 11.4934C67.6378 11.4934 67.9989 11.025 67.9989 10.2201Z" fill="white"/>
<path d="M69.7339 8.37288H70.4384V8.96037H70.4931C70.5859 8.74937 70.7424 8.57248 70.9408 8.45438C71.1392 8.33627 71.3696 8.28283 71.5999 8.30149C71.7803 8.28796 71.9615 8.31509 72.13 8.38088C72.2985 8.44666 72.45 8.54941 72.5733 8.68151C72.6966 8.81361 72.7885 8.97167 72.8422 9.144C72.8959 9.31632 72.91 9.49848 72.8835 9.67699V12.0711H72.1516V9.86027C72.1516 9.26596 71.8926 8.9704 71.3513 8.9704C71.2288 8.96471 71.1065 8.98551 70.9928 9.03136C70.8791 9.07721 70.7767 9.14704 70.6926 9.23606C70.6085 9.32507 70.5447 9.43117 70.5055 9.54708C70.4664 9.66299 70.4528 9.78597 70.4658 9.90759V12.0711H69.7339V8.37288Z" fill="white"/>
<path d="M77.0187 7.45215V8.38974H77.8222V9.00451H77.0187V10.9062C77.0187 11.2935 77.1788 11.4632 77.5431 11.4632C77.6364 11.4629 77.7296 11.4572 77.8222 11.4463V12.0543C77.6908 12.0777 77.5576 12.0902 77.4241 12.0916C76.6101 12.0916 76.286 11.806 76.286 11.093V9.00447H75.6973V8.3897H76.286V7.45215H77.0187Z" fill="white"/>
<path d="M78.8223 6.9292H79.5477V8.9672H79.6056C79.7029 8.75422 79.8637 8.57633 80.0661 8.45778C80.2684 8.33923 80.5025 8.28578 80.7364 8.30471C80.916 8.29497 81.0954 8.32485 81.262 8.39223C81.4286 8.45961 81.5782 8.56283 81.7002 8.69451C81.8222 8.8262 81.9136 8.98311 81.9677 9.15405C82.0219 9.32499 82.0376 9.50574 82.0137 9.68342V12.0711H81.281V9.86347C81.281 9.27277 81.0051 8.9736 80.488 8.9736C80.3622 8.96331 80.2357 8.98056 80.1173 9.02413C79.9988 9.0677 79.8914 9.13655 79.8025 9.22586C79.7135 9.31516 79.6452 9.42277 79.6023 9.54115C79.5595 9.65953 79.543 9.78582 79.5542 9.91119V12.0711H78.8223L78.8223 6.9292Z" fill="white"/>
<path d="M86.2808 11.0724C86.1813 11.4104 85.9659 11.7028 85.6721 11.8983C85.3783 12.0939 85.025 12.1803 84.6738 12.1423C84.4295 12.1487 84.1866 12.1021 83.9622 12.0056C83.7378 11.909 83.5371 11.765 83.3741 11.5833C83.2111 11.4017 83.0897 11.1869 83.0183 10.9538C82.9469 10.7207 82.9272 10.4749 82.9606 10.2335C82.9281 9.99127 82.9481 9.74494 83.0194 9.51114C83.0906 9.27734 83.2114 9.06153 83.3735 8.87832C83.5356 8.69511 83.7354 8.54878 83.9591 8.44923C84.1829 8.34969 84.4255 8.29925 84.6706 8.30133C85.7025 8.30133 86.325 9.00436 86.325 10.1657V10.4203H83.7062V10.4612C83.6948 10.597 83.7119 10.7336 83.7564 10.8623C83.801 10.991 83.8721 11.1091 83.9651 11.2088C84.0581 11.3086 84.1709 11.3878 84.2964 11.4415C84.4219 11.4953 84.5573 11.5222 84.6939 11.5207C84.869 11.5417 85.0463 11.5102 85.2034 11.4304C85.3606 11.3506 85.4903 11.2259 85.5762 11.0724L86.2808 11.0724ZM83.7062 9.88055H85.5794C85.5886 9.75643 85.5717 9.63176 85.5297 9.51455C85.4878 9.39734 85.4217 9.29017 85.3357 9.19995C85.2497 9.10972 85.1458 9.03843 85.0305 8.99065C84.9153 8.94287 84.7913 8.91966 84.6665 8.92252C84.5399 8.92093 84.4143 8.94463 84.2971 8.99222C84.1798 9.03981 84.0733 9.11033 83.9838 9.19961C83.8943 9.2889 83.8236 9.39514 83.776 9.51209C83.7283 9.62904 83.7046 9.75432 83.7062 9.88055H83.7062Z" fill="white"/>
</svg>
