<svg width="111" height="33" viewBox="0 0 111 33" fill="none" xmlns="http://www.w3.org/2000/svg">
<path d="M106.894 33H4.23195C1.9734 33 0.125488 31.1521 0.125488 28.8935V4.25475C0.125488 1.9962 1.9734 0.148291 4.23195 0.148291H106.894C109.152 0.148291 111 1.9962 111 4.25475V28.8935C111 31.1521 109.152 33 106.894 33Z" fill="black"/>
<path d="M106.894 0.148291H4.23195C1.9734 0.148291 0.125488 1.9962 0.125488 4.25475V28.8935C0.125488 31.1521 1.9734 33 4.23195 33H106.894C109.152 33 111 31.1521 111 28.8935V4.25475C111 1.9962 109.152 0.148291 106.894 0.148291ZM106.894 0.805324C108.796 0.805324 110.343 2.35297 110.343 4.25475V28.8935C110.343 30.7957 108.796 32.3433 106.894 32.3433H4.23195C2.33017 32.3433 0.782522 30.7957 0.782522 28.8935V4.25475C0.782522 2.35297 2.33017 0.805324 4.23195 0.805324H106.894Z" fill="#A6A6A6"/>
<path d="M39.0697 8.56103C39.0697 9.24911 38.8659 9.79708 38.4578 10.2058C37.9943 10.6919 37.3901 10.9351 36.6474 10.9351C35.9362 10.9351 35.3315 10.6887 34.8342 10.1952C34.336 9.70213 34.0874 9.09068 34.0874 8.36113C34.0874 7.63125 34.336 7.02012 34.8342 6.52669C35.3315 6.03359 35.9362 5.78687 36.6474 5.78687C37.0004 5.78687 37.3382 5.85586 37.659 5.99351C37.9798 6.13148 38.2371 6.31463 38.4297 6.54402L37.9965 6.97742C37.6703 6.58763 37.2211 6.3929 36.6474 6.3929C36.1287 6.3929 35.6802 6.57515 35.3017 6.93988C34.9231 7.30503 34.7338 7.7785 34.7338 8.36113C34.7338 8.94375 34.9231 9.41723 35.3017 9.78237C35.6802 10.1471 36.1287 10.3294 36.6474 10.3294C37.1977 10.3294 37.6565 10.1461 38.0238 9.77917C38.2622 9.54009 38.4001 9.2078 38.437 8.78106H36.6474V8.18915H39.0354C39.0584 8.31785 39.0697 8.44137 39.0697 8.56103Z" fill="white"/>
<path d="M39.0698 8.56093H38.9877C38.987 9.23332 38.7906 9.75558 38.3999 10.1477L38.399 10.1483L38.3986 10.149C37.9498 10.6183 37.3729 10.8518 36.6475 10.8528C35.9553 10.8518 35.3759 10.6157 34.892 10.1371C34.4093 9.65744 34.1705 9.07194 34.1696 8.36103C34.1705 7.64979 34.4093 7.06462 34.892 6.58531C35.3759 6.10633 35.9553 5.86988 36.6475 5.8689C36.9899 5.8689 37.3158 5.93567 37.6267 6.0688C37.9379 6.20292 38.1837 6.37867 38.3668 6.59689L38.4298 6.54392L38.3717 6.48585L37.9385 6.91958L37.9966 6.97731L38.0598 6.92475C37.7184 6.51566 37.2392 6.30944 36.6475 6.31067C36.1096 6.31001 35.6364 6.50219 35.2449 6.88081C34.8497 7.26066 34.6512 7.76074 34.6518 8.36103C34.6512 8.96131 34.8497 9.4614 35.2449 9.84124C35.6364 10.2199 36.1096 10.412 36.6475 10.4114C37.216 10.4124 37.7005 10.2195 38.0819 9.83714C38.3367 9.58171 38.4811 9.2279 38.5189 8.78802L38.5266 8.69883H36.7297V8.27118H39.0355V8.18905L38.9546 8.2035C38.9771 8.32801 38.9877 8.44636 38.9877 8.56093H39.0698H39.1519C39.1519 8.43609 39.1403 8.30781 39.1163 8.17435L39.1041 8.10692H36.5654V8.78095V8.86308H38.4371V8.78095L38.3553 8.77389C38.319 9.18717 38.1875 9.49835 37.9658 9.72101C37.6129 10.0726 37.1798 10.2461 36.6475 10.2471C36.148 10.2465 35.7243 10.0745 35.3589 9.72322C34.997 9.37319 34.817 8.92632 34.8161 8.36103C34.817 7.79573 34.997 7.34887 35.3589 6.99883C35.7243 6.64756 36.148 6.47558 36.6475 6.47493C37.2029 6.47624 37.6223 6.65972 37.9338 7.03029L37.9915 7.09895L38.4878 6.60198L38.541 6.54876L38.4926 6.49127C38.2908 6.25072 38.022 6.05976 37.6915 5.91801C37.3604 5.77584 37.0111 5.70464 36.6475 5.70464C35.9174 5.70398 35.2873 5.96063 34.7762 6.46852C34.2633 6.97542 34.0047 7.61258 34.0054 8.36103C34.0047 9.10914 34.2633 9.74663 34.7766 10.2539C35.2873 10.7614 35.9174 11.0177 36.6475 11.0171C37.4079 11.0177 38.0387 10.7652 38.5173 10.2625L38.4579 10.2057L38.516 10.2638C38.9414 9.8387 39.1525 9.26445 39.1519 8.56093H39.0698Z" fill="white"/>
<path d="M42.8552 6.50281H40.6112V8.06524H42.6349V8.65739H40.6112V10.2198H42.8552V10.8252H39.9785V5.89744H42.8552V6.50281Z" fill="white"/>
<path d="M42.8558 6.50271V6.42059H40.5296V8.14727H42.5534V8.57492L40.5296 8.57517V10.3019H42.7737V10.743H40.0612V5.97947H42.7737V6.50271H42.8558V6.42059V6.50271H42.938V5.89734V5.81521H39.897V10.9072H42.938V10.2197V10.1376H40.6939V8.73942H42.7176V8.06514V7.98301H40.6939V6.58484H42.938V6.50271H42.8558Z" fill="white"/>
<path d="M45.5256 10.8252H44.8919V6.50281H43.5156V5.89744H46.9019V6.50281H45.5256V10.8252Z" fill="white"/>
<path d="M45.5257 10.8251V10.743H44.9742V6.42059H43.5979V5.97947H46.8199V6.42059H45.4435V10.8251H45.5257V10.743V10.8251H45.6078V6.58484H46.9841V5.89734V5.81521H43.4336V6.50271V6.58484H44.8099V10.9072H45.5257H45.6078V10.8251H45.5257Z" fill="white"/>
<path d="M49.3521 10.8252V5.89744H49.985V10.8252H49.3521Z" fill="white"/>
<path d="M49.3521 10.8251H49.4343V5.97947H49.903V10.743H49.3521V10.8251H49.4343H49.3521V10.9072H49.9851H50.0672V5.81521H49.3521H49.27V10.9072H49.3521V10.8251Z" fill="white"/>
<path d="M52.7936 10.8252H52.1599V6.50281H50.7837V5.89744H54.1699V6.50281H52.7936V10.8252Z" fill="white"/>
<path d="M52.7941 10.8251V10.743H52.2426V6.42059H50.8664V5.97947H54.0883V6.42059H52.712V10.8251H52.7941V10.743V10.8251H52.8763V6.58484H54.2526V5.89734V5.81521H50.7021V6.50271V6.58484H52.0784V10.9072H52.7941H52.8763V10.8251H52.7941Z" fill="white"/>
<path d="M57.4346 9.77564C57.7994 10.1449 58.2457 10.3294 58.7734 10.3294C59.3012 10.3294 59.7477 10.1449 60.1119 9.77564C60.4769 9.40639 60.6598 8.93439 60.6598 8.36113C60.6598 7.78787 60.4769 7.31587 60.1119 6.94662C59.7477 6.57736 59.3012 6.3929 58.7734 6.3929C58.2457 6.3929 57.7994 6.57736 57.4346 6.94662C57.0705 7.31587 56.8876 7.78787 56.8876 8.36113C56.8876 8.93439 57.0705 9.40639 57.4346 9.77564ZM60.5803 10.1882C60.0958 10.6864 59.4933 10.9351 58.7734 10.9351C58.0528 10.9351 57.4506 10.6864 56.9672 10.1882C56.4824 9.69055 56.2412 9.0814 56.2412 8.36113C56.2412 7.64085 56.4824 7.03162 56.9672 6.53408C57.4506 6.0358 58.0528 5.78687 58.7734 5.78687C59.4895 5.78687 60.0904 6.03712 60.5771 6.53728C61.0631 7.03745 61.3063 7.64537 61.3063 8.36113C61.3063 9.0814 61.0637 9.69055 60.5803 10.1882Z" fill="white"/>
<path d="M57.4347 9.77554L57.3763 9.83328C57.7546 10.2173 58.2265 10.4124 58.7735 10.4114C59.3202 10.4124 59.7927 10.2173 60.1704 9.83328C60.5511 9.44891 60.7426 8.95162 60.7421 8.36103C60.7426 7.77044 60.5511 7.27314 60.1704 6.88878C59.7927 6.50474 59.3202 6.30969 58.7735 6.31067C58.2265 6.30969 57.7546 6.50474 57.3763 6.88878C56.9965 7.27314 56.8046 7.77044 56.8056 8.36103C56.8046 8.95162 56.9965 9.44891 57.3763 9.83328L57.4347 9.77554L57.4931 9.7178C57.1447 9.36325 56.9705 8.91729 56.9699 8.36103C56.9705 7.80477 57.1447 7.35881 57.4931 7.00425C57.8447 6.64978 58.2646 6.47592 58.7735 6.47493C59.282 6.47592 59.7029 6.64978 60.0536 7.00425C60.4026 7.35881 60.5768 7.80477 60.5775 8.36103C60.5768 8.91729 60.4026 9.36325 60.0536 9.7178C59.7029 10.0723 59.282 10.2461 58.7735 10.2471C58.2646 10.2461 57.8447 10.0723 57.4931 9.7178L57.4347 9.77554ZM60.5804 10.1881L60.5216 10.131C60.0507 10.6135 59.4748 10.8518 58.7735 10.8528C58.0719 10.8518 57.496 10.6135 57.026 10.131L57.0238 10.1284L57.026 10.131C56.556 9.64684 56.3241 9.06299 56.3234 8.36103C56.3241 7.65907 56.556 7.07521 57.026 6.59106C57.496 6.10855 58.0719 5.86988 58.7735 5.8689C59.4703 5.86988 60.0449 6.10954 60.5184 6.59459C60.99 7.08096 61.2233 7.66392 61.2243 8.36103C61.2233 9.06299 60.9907 9.64684 60.5216 10.131L60.5804 10.1881L60.6394 10.2452C61.1373 9.73382 61.3891 9.09953 61.3885 8.36103C61.3891 7.62671 61.1363 6.99374 60.6361 6.4801C60.1357 5.9645 59.5088 5.70374 58.7735 5.70464C58.0344 5.70374 57.4056 5.96326 56.9083 6.4769V6.47657C56.4094 6.98824 56.1585 7.62252 56.1592 8.36103C56.1585 9.09953 56.4094 9.73382 56.9083 10.2455L56.9105 10.2478L56.9083 10.2452C57.4056 10.7588 58.0344 11.0177 58.7735 11.0171C59.5124 11.0177 60.1411 10.7588 60.6394 10.2452L60.5804 10.1881Z" fill="white"/>
<path d="M62.1948 10.8252V5.89744H62.9654L65.3603 9.7309H65.3876L65.3603 8.78124V5.89744H65.994V10.8252H65.3331L62.8275 6.80595H62.8002L62.8275 7.75594V10.8252H62.1948Z" fill="white"/>
<path d="M62.1954 10.8251H62.2775V5.97947H62.9204L65.3153 9.81294H65.3882H65.4725L65.443 8.77991V5.97947H65.9124V10.743H65.3792L62.8736 6.72373H62.8008H62.7164L62.7459 7.75716V10.743H62.1954V10.8251H62.2775H62.1954V10.9072H62.828H62.9102V7.75453L62.8829 6.80364L62.8008 6.80586V6.88798H62.828V6.80586L62.7584 6.84955L65.2881 10.9072H65.9945H66.0767V5.81521H65.3609H65.2788V8.78213L65.3061 9.73302L65.3882 9.73081V9.64868H65.3609V9.73081L65.4306 9.6872L63.0115 5.81521H62.1954H62.1133V10.9072H62.1954V10.8251Z" fill="white"/>
<path d="M87.9509 24.787H89.4835V14.5199H87.9509V24.787ZM101.754 18.2183L99.9977 22.6696H99.9451L98.1218 18.2183H96.471L99.2051 24.4399L97.6463 27.9005H99.2454L103.459 18.2183H101.754ZM93.0635 23.6209C92.5609 23.6209 91.8611 23.37 91.8611 22.7489C91.8611 21.9564 92.7333 21.6526 93.4856 21.6526C94.1599 21.6526 94.4761 21.7979 94.8859 21.9963C94.7669 22.9472 93.948 23.6209 93.0635 23.6209ZM93.2483 17.9937C92.1387 17.9937 90.9897 18.4826 90.5142 19.5657L91.8743 20.1336C92.165 19.5657 92.7062 19.3806 93.2746 19.3806C94.0671 19.3806 94.8728 19.8564 94.8859 20.7017V20.8073C94.6083 20.6488 94.0145 20.4111 93.2877 20.4111C91.8217 20.4111 90.3286 21.2166 90.3286 22.7225C90.3286 24.0963 91.531 24.9814 92.8779 24.9814C93.9086 24.9814 94.4761 24.5191 94.8334 23.9776H94.8859V24.77H96.3651V20.8336C96.3651 19.011 95.005 17.9937 93.2483 17.9937ZM83.7771 19.4682H81.5974V15.9488H83.7771C84.9228 15.9488 85.5733 16.8974 85.5733 17.7085C85.5733 18.5041 84.9228 19.4682 83.7771 19.4682ZM83.7377 14.5199H80.0657V24.787H81.5974V20.8971H83.7377C85.4362 20.8971 87.1058 19.6674 87.1058 17.7085C87.1058 15.7496 85.4362 14.5199 83.7377 14.5199ZM63.7138 23.6227C62.655 23.6227 61.7686 22.7363 61.7686 21.5188C61.7686 20.2885 62.655 19.3887 63.7138 19.3887C64.759 19.3887 65.5793 20.2885 65.5793 21.5188C65.5793 22.7363 64.759 23.6227 63.7138 23.6227ZM65.4735 18.7932H65.4205C65.0766 18.3831 64.4148 18.0127 63.5813 18.0127C61.8347 18.0127 60.2339 19.5474 60.2339 21.5188C60.2339 23.4771 61.8347 24.9987 63.5813 24.9987C64.4148 24.9987 65.0766 24.6282 65.4205 24.205H65.4735V24.7078C65.4735 26.0443 64.759 26.7588 63.6079 26.7588C62.6685 26.7588 62.0863 26.0838 61.8479 25.5149L60.5117 26.0706C60.8954 26.9968 61.9143 28.1348 63.6079 28.1348C65.4074 28.1348 66.929 27.076 66.929 24.496V18.2244H65.4735V18.7932ZM67.9874 24.787H69.5222V14.5195H67.9874V24.787ZM71.7849 21.3998C71.7451 20.0501 72.8301 19.3623 73.6107 19.3623C74.2198 19.3623 74.7355 19.6664 74.9072 20.1034L71.7849 21.3998ZM76.5481 20.2356C76.2574 19.4547 75.3704 18.0127 73.5577 18.0127C71.7583 18.0127 70.2633 19.4284 70.2633 21.5057C70.2633 23.464 71.7451 24.9987 73.7297 24.9987C75.331 24.9987 76.2574 24.0196 76.6409 23.4508L75.4501 22.6567C75.0534 23.239 74.5105 23.6227 73.7297 23.6227C72.9491 23.6227 72.3935 23.2654 72.0361 22.5643L76.7066 20.6324L76.5481 20.2356ZM39.3368 19.0844V20.5663H42.8828C42.7769 21.3998 42.499 22.0084 42.0756 22.4319C41.5597 22.9481 40.7526 23.5169 39.3368 23.5169C37.1536 23.5169 35.4469 21.7572 35.4469 19.574C35.4469 17.3909 37.1536 15.6309 39.3368 15.6309C40.5145 15.6309 41.3743 16.0941 42.0095 16.6896L43.0547 15.6444C42.1683 14.7974 40.9906 14.1491 39.3368 14.1491C36.3464 14.1491 33.8325 16.5837 33.8325 19.574C33.8325 22.5643 36.3464 24.9987 39.3368 24.9987C40.9512 24.9987 42.1683 24.4697 43.1208 23.4771C44.1 22.498 44.4044 21.122 44.4044 20.0107C44.4044 19.6664 44.3781 19.3492 44.3249 19.0844H39.3368ZM48.4358 23.6227C47.3771 23.6227 46.4641 22.7495 46.4641 21.5057C46.4641 20.2487 47.3771 19.3887 48.4358 19.3887C49.4942 19.3887 50.4072 20.2487 50.4072 21.5057C50.4072 22.7495 49.4942 23.6227 48.4358 23.6227ZM48.4358 18.0127C46.5038 18.0127 44.9293 19.4813 44.9293 21.5057C44.9293 23.5169 46.5038 24.9987 48.4358 24.9987C50.3674 24.9987 51.942 23.5169 51.942 21.5057C51.942 19.4813 50.3674 18.0127 48.4358 18.0127ZM56.0847 23.6227C55.0264 23.6227 54.1133 22.7495 54.1133 21.5057C54.1133 20.2487 55.0264 19.3887 56.0847 19.3887C57.1431 19.3887 58.0561 20.2487 58.0561 21.5057C58.0561 22.7495 57.1431 23.6227 56.0847 23.6227ZM56.0847 18.0127C54.1528 18.0127 52.5785 19.4813 52.5785 21.5057C52.5785 23.5169 54.1528 24.9987 56.0847 24.9987C58.0164 24.9987 59.591 23.5169 59.591 21.5057C59.591 19.4813 58.0164 18.0127 56.0847 18.0127Z" fill="white"/>
<path d="M8.75703 26.75L8.69601 26.6916C8.45702 26.4387 8.31592 26.0461 8.31592 25.5376V25.6573V7.49356C8.31592 7.49192 8.31592 7.49069 8.31592 7.48937C8.31592 7.49093 8.31592 7.49224 8.31592 7.49389V7.61388C8.31592 7.06328 8.48042 6.64853 8.75605 6.39984L18.9317 16.5752L8.75703 26.75ZM8.31592 7.48839C8.31592 7.44313 8.31715 7.39919 8.31945 7.35591C8.31715 7.39886 8.31592 7.44313 8.31592 7.48839ZM8.31945 7.35394C8.31945 7.35337 8.31945 7.35271 8.3197 7.35205C8.31945 7.35271 8.31945 7.35337 8.31945 7.35394ZM8.3197 7.34819C8.3197 7.34786 8.3197 7.34753 8.3197 7.34721C8.3197 7.34753 8.3197 7.34786 8.3197 7.34819Z" fill="url(#paint0_linear_2514_27558)"/>
<path d="M22.3235 20.0879L22.4009 20.044L26.4194 17.7607C26.8025 17.5429 27.0578 17.2788 27.1852 16.9994C27.0582 17.2788 26.8027 17.5432 26.4194 17.761L22.4009 20.0443L22.3235 20.0879ZM22.3245 19.9676L18.9321 16.5746L22.3241 13.1823L26.4194 15.5089C26.9394 15.8044 27.2314 16.1852 27.2802 16.5743C27.2802 16.5746 27.2802 16.5753 27.2802 16.5759C27.2314 16.9641 26.9394 17.3453 26.4194 17.6407L22.3245 19.9676Z" fill="url(#paint1_linear_2514_27558)"/>
<path d="M9.48287 27.1367C9.19862 27.1367 8.95059 27.0443 8.75718 26.8698L8.75751 26.8695C8.95092 27.044 9.19928 27.1367 9.48353 27.1367C9.50817 27.1367 9.53322 27.1361 9.5586 27.1348C9.53289 27.1361 9.50751 27.1367 9.48287 27.1367ZM9.4832 27.0164C9.19895 27.0167 8.95092 26.924 8.75751 26.7495V26.7492L18.9322 16.5745L22.3245 19.9674L10.4033 26.7409C10.0735 26.9279 9.76096 27.0164 9.4832 27.0164ZM8.75463 26.8676C8.73665 26.8512 8.71899 26.8339 8.70166 26.8159L8.75463 26.8676Z" fill="url(#paint2_linear_2514_27558)"/>
<path d="M18.9315 16.5747L8.75586 6.3993C8.94927 6.22511 9.19698 6.13271 9.4809 6.13271C9.7594 6.13271 10.0721 6.22158 10.4026 6.40891L22.3235 13.1824L18.9315 16.5747ZM22.4002 13.1057L10.4026 6.289C10.0721 6.10158 9.7594 6.01272 9.4809 6.01272C9.47958 6.01272 9.47868 6.01272 9.47737 6.01272C9.47901 6.01272 9.48024 6.01272 9.48221 6.01272C9.76005 6.01272 10.0725 6.10125 10.4026 6.28867L22.4002 13.1057Z" fill="url(#paint3_linear_2514_27558)"/>
<path d="M9.5584 27.1353C9.81662 27.1205 10.1025 27.0316 10.4031 26.8613L22.3233 20.0881L10.4031 26.8613C10.1028 27.0319 9.81662 27.1205 9.5584 27.1353ZM8.75698 26.8702L8.75444 26.868C8.75534 26.8687 8.75633 26.8696 8.75698 26.8702ZM8.70146 26.8163L8.69629 26.8113V26.8109C8.69826 26.8128 8.69982 26.8147 8.70146 26.8163Z" fill="black"/>
<path d="M22.3232 20.0879L22.4006 20.044L22.3232 20.0879Z" fill="url(#paint4_linear_2514_27558)"/>
<path d="M9.48285 27.1367C9.1986 27.1367 8.95024 27.044 8.75682 26.8695L8.75649 26.8698C8.75584 26.8691 8.75485 26.8682 8.75395 26.8676L8.70098 26.8159C8.69933 26.8143 8.69777 26.8124 8.6958 26.8105L8.75682 26.7495C8.95024 26.924 9.19827 27.0167 9.48252 27.0164C9.76028 27.0164 10.0728 26.9279 10.4026 26.7409L22.3238 19.9674L22.4002 20.0438L22.3229 20.0877L10.4026 26.8608C10.102 27.0312 9.81613 27.12 9.55791 27.1348C9.53253 27.1361 9.50749 27.1367 9.48285 27.1367Z" fill="url(#paint5_linear_2514_27558)"/>
<path d="M8.69601 26.811C8.45702 26.5582 8.31592 26.1655 8.31592 25.657V25.6567C8.31592 26.1655 8.45702 26.5578 8.69601 26.8107V26.811Z" fill="black"/>
<path d="M8.69601 26.811C8.45702 26.5582 8.31592 26.1658 8.31592 25.657V25.5374C8.31592 26.0458 8.45702 26.4385 8.69601 26.6914L8.75703 26.7498L8.69601 26.811Z" fill="url(#paint6_linear_2514_27558)"/>
<path d="M8.6958 26.811L8.75682 26.7498V26.75L8.6958 26.811Z" fill="url(#paint7_linear_2514_27558)"/>
<path d="M27.1851 16.9995C27.2482 16.8609 27.28 16.7185 27.28 16.576C27.28 16.5757 27.28 16.5754 27.28 16.5754C27.28 16.7181 27.2482 16.8605 27.1851 16.9995Z" fill="black"/>
<path d="M22.4001 20.0439L22.3237 19.9676L26.4186 17.6407C26.9387 17.3453 27.2306 16.9641 27.2794 16.5759C27.2794 16.7184 27.2476 16.8608 27.1845 16.9994C27.0571 17.2788 26.8017 17.5429 26.4186 17.7607L22.4001 20.0439Z" fill="url(#paint8_linear_2514_27558)"/>
<path d="M27.28 16.5747V16.5744C27.2797 16.1448 26.9926 15.7152 26.4192 15.3893L22.4007 13.106H22.4004L22.4007 13.1057L26.4192 15.3889C26.9932 15.7149 27.2807 16.1451 27.28 16.5747Z" fill="#404040"/>
<path d="M27.2797 16.5742C27.231 16.1851 26.939 15.8043 26.4189 15.5088L22.3237 13.1822L22.4001 13.1058H22.4004L26.4189 15.3891C26.9923 15.7151 27.2794 16.1446 27.2797 16.5742Z" fill="url(#paint9_linear_2514_27558)"/>
<path d="M8.31592 7.48877C8.31592 7.48844 8.31592 7.48811 8.31592 7.48778C8.31592 7.48811 8.31592 7.48844 8.31592 7.48877ZM8.31945 7.35531C8.31945 7.35465 8.31945 7.354 8.31945 7.35334C8.31945 7.354 8.31945 7.35465 8.31945 7.35531ZM8.3197 7.35145C8.3197 7.35014 8.3197 7.3489 8.3197 7.34759C8.3197 7.3489 8.3197 7.35014 8.3197 7.35145ZM8.3197 7.3466C8.36725 6.50289 8.82602 6.01553 9.47501 6.01266C9.19363 6.0143 8.94856 6.1067 8.7567 6.27958V6.27925L8.75441 6.28155C8.7342 6.29978 8.71498 6.31908 8.69601 6.33896C8.48042 6.56703 8.34442 6.90869 8.3197 7.3466Z" fill="#404040"/>
<path d="M8.31592 7.61328V7.49329C8.31592 7.49165 8.31592 7.49033 8.31592 7.48877C8.31592 7.48845 8.31592 7.48812 8.31592 7.48779C8.31592 7.44254 8.31715 7.39827 8.31945 7.35531C8.31945 7.35466 8.31945 7.354 8.31945 7.35334C8.31945 7.35277 8.31945 7.35211 8.3197 7.35145C8.3197 7.35014 8.3197 7.34891 8.3197 7.34759C8.3197 7.34727 8.3197 7.34694 8.3197 7.34661C8.34442 6.9087 8.48042 6.56704 8.69601 6.33896L8.75605 6.39925C8.48042 6.64793 8.31592 7.06269 8.31592 7.61328ZM8.75441 6.28155L8.75671 6.27926C8.75605 6.28024 8.75506 6.2809 8.75441 6.28155Z" fill="url(#paint10_linear_2514_27558)"/>
<path d="M22.3235 13.1816L10.4026 6.40819C10.0721 6.22086 9.75938 6.13199 9.48087 6.13199C9.19695 6.13199 8.94925 6.22439 8.75584 6.39858L8.6958 6.3383C8.71477 6.31842 8.73399 6.29912 8.75419 6.28089C8.75485 6.28023 8.75584 6.27958 8.75649 6.27892C8.94835 6.10604 9.19342 6.01364 9.4748 6.012C9.47545 6.012 9.47636 6.012 9.47734 6.012C9.47866 6.012 9.47956 6.012 9.48087 6.012C9.75938 6.012 10.0721 6.10086 10.4026 6.28828L22.4002 13.105L22.3999 13.1053L22.3235 13.1816Z" fill="url(#paint11_linear_2514_27558)"/>
<defs>
<linearGradient id="paint0_linear_2514_27558" x1="18.0294" y1="7.30195" x2="4.24609" y2="21.0853" gradientUnits="userSpaceOnUse">
<stop stop-color="#00A0FF"/>
<stop offset="0.00657445" stop-color="#00A1FF"/>
<stop offset="0.2601" stop-color="#00BEFF"/>
<stop offset="0.5122" stop-color="#00D2FF"/>
<stop offset="0.7604" stop-color="#00DFFF"/>
<stop offset="1" stop-color="#00E3FF"/>
</linearGradient>
<linearGradient id="paint1_linear_2514_27558" x1="27.9138" y1="16.5751" x2="8.04097" y2="16.5751" gradientUnits="userSpaceOnUse">
<stop stop-color="#FFE000"/>
<stop offset="0.4087" stop-color="#FFBD00"/>
<stop offset="0.7754" stop-color="#FFA500"/>
<stop offset="1" stop-color="#FF9C00"/>
</linearGradient>
<linearGradient id="paint2_linear_2514_27558" x1="20.5161" y1="18.4596" x2="1.82489" y2="37.1508" gradientUnits="userSpaceOnUse">
<stop stop-color="#FF3A44"/>
<stop offset="1" stop-color="#C31162"/>
</linearGradient>
<linearGradient id="paint3_linear_2514_27558" x1="6.11844" y1="0.29291" x2="14.4648" y2="8.6393" gradientUnits="userSpaceOnUse">
<stop stop-color="#32A071"/>
<stop offset="0.0685" stop-color="#2DA771"/>
<stop offset="0.4762" stop-color="#15CF74"/>
<stop offset="0.8009" stop-color="#06E775"/>
<stop offset="1" stop-color="#00F076"/>
</linearGradient>
<linearGradient id="paint4_linear_2514_27558" x1="27.9133" y1="16.5751" x2="8.04127" y2="16.5751" gradientUnits="userSpaceOnUse">
<stop stop-color="#CCB300"/>
<stop offset="0.4087" stop-color="#CC9700"/>
<stop offset="0.7754" stop-color="#CC8400"/>
<stop offset="1" stop-color="#CC7D00"/>
</linearGradient>
<linearGradient id="paint5_linear_2514_27558" x1="20.5154" y1="18.4596" x2="1.8242" y2="37.1508" gradientUnits="userSpaceOnUse">
<stop stop-color="#CC2E36"/>
<stop offset="1" stop-color="#9C0E4E"/>
</linearGradient>
<linearGradient id="paint6_linear_2514_27558" x1="18.0294" y1="7.30172" x2="4.24608" y2="21.0851" gradientUnits="userSpaceOnUse">
<stop stop-color="#008DE0"/>
<stop offset="0.00657445" stop-color="#008DE0"/>
<stop offset="0.2601" stop-color="#00A7E0"/>
<stop offset="0.5122" stop-color="#00B8E0"/>
<stop offset="0.7604" stop-color="#00C4E0"/>
<stop offset="1" stop-color="#00C7E0"/>
</linearGradient>
<linearGradient id="paint7_linear_2514_27558" x1="20.5156" y1="18.4605" x2="1.82523" y2="37.152" gradientUnits="userSpaceOnUse">
<stop stop-color="#E0333C"/>
<stop offset="1" stop-color="#AB0F56"/>
</linearGradient>
<linearGradient id="paint8_linear_2514_27558" x1="27.913" y1="16.5751" x2="8.04022" y2="16.5751" gradientUnits="userSpaceOnUse">
<stop stop-color="#E0C500"/>
<stop offset="0.4087" stop-color="#E0A600"/>
<stop offset="0.7754" stop-color="#E09100"/>
<stop offset="1" stop-color="#E08900"/>
</linearGradient>
<linearGradient id="paint9_linear_2514_27558" x1="27.9134" y1="16.575" x2="8.04055" y2="16.575" gradientUnits="userSpaceOnUse">
<stop stop-color="#FFE840"/>
<stop offset="0.4087" stop-color="#FFCE40"/>
<stop offset="0.7754" stop-color="#FFBC40"/>
<stop offset="1" stop-color="#FFB540"/>
</linearGradient>
<linearGradient id="paint10_linear_2514_27558" x1="18.0294" y1="7.30135" x2="4.24607" y2="21.0847" gradientUnits="userSpaceOnUse">
<stop stop-color="#40B8FF"/>
<stop offset="0.00657445" stop-color="#40B9FF"/>
<stop offset="0.2601" stop-color="#40CEFF"/>
<stop offset="0.5122" stop-color="#40DDFF"/>
<stop offset="0.7604" stop-color="#40E7FF"/>
<stop offset="1" stop-color="#40EAFF"/>
</linearGradient>
<linearGradient id="paint11_linear_2514_27558" x1="6.11842" y1="0.292189" x2="14.4648" y2="8.63858" gradientUnits="userSpaceOnUse">
<stop stop-color="#65B895"/>
<stop offset="0.0685" stop-color="#62BD95"/>
<stop offset="0.4762" stop-color="#50DB97"/>
<stop offset="0.8009" stop-color="#44ED98"/>
<stop offset="1" stop-color="#40F498"/>
</linearGradient>
</defs>
</svg>
