<svg width="25" height="24" viewBox="0 0 25 24" fill="none" xmlns="http://www.w3.org/2000/svg">
<path fill-rule="evenodd" clip-rule="evenodd" d="M15.9 7C15.9 9.43005 13.9301 11.4 11.5 11.4C9.06995 11.4 7.1 9.43005 7.1 7C7.1 4.56995 9.06995 2.6 11.5 2.6C13.9301 2.6 15.9 4.56995 15.9 7ZM14.9365 11.919C16.4865 10.8342 17.5 9.03544 17.5 7C17.5 3.68629 14.8137 1 11.5 1C8.18629 1 5.5 3.68629 5.5 7C5.5 9.17857 6.66109 11.086 8.39822 12.1371C8.25842 12.1881 8.11959 12.2422 7.98182 12.2993C6.7079 12.8269 5.55039 13.6004 4.57538 14.5754C3.60036 15.5504 2.82694 16.7079 2.29926 17.9818C1.77159 19.2557 1.5 20.6211 1.5 22C1.5 22.4418 1.85817 22.8 2.3 22.8C2.74183 22.8 3.1 22.4418 3.1 22C3.1 20.8312 3.33021 19.6739 3.77747 18.5941C4.22474 17.5143 4.88031 16.5332 5.70675 15.7067C6.53319 14.8803 7.51432 14.2247 8.59412 13.7775C9.67391 13.3302 10.8312 13.1 12 13.1C13.1688 13.1 14.3261 13.3302 15.4059 13.7775C16.4857 14.2247 17.4668 14.8803 18.2933 15.7067C19.1197 16.5332 19.7753 17.5143 20.2225 18.5941C20.6698 19.6739 20.9 20.8312 20.9 22C20.9 22.4418 21.2582 22.8 21.7 22.8C22.1418 22.8 22.5 22.4418 22.5 22C22.5 20.6211 22.2284 19.2557 21.7007 17.9818C21.1731 16.7079 20.3996 15.5504 19.4246 14.5754C18.4496 13.6004 17.2921 12.8269 16.0182 12.2993C15.6641 12.1526 15.303 12.0257 14.9365 11.919Z" fill="black"/>
</svg>
