<svg width="24" height="24" viewBox="0 0 24 24" fill="none" xmlns="http://www.w3.org/2000/svg">
<path fill-rule="evenodd" clip-rule="evenodd" d="M6 21.5596H7.9V17.8429C7.9 16.4744 9.06406 15.365 10.5 15.365H13.5C14.9359 15.365 16.1 16.4744 16.1 17.8429V21.5596H18C19.8778 21.5596 21.4 20.1089 21.4 18.3194V12.8673C21.4 12.1215 21.1301 11.3986 20.6358 10.8205L14.6358 3.80278C13.2753 2.21148 10.7247 2.21148 9.3642 3.80278L3.3642 10.8205C2.86991 11.3986 2.6 12.1215 2.6 12.8673V18.3194C2.6 20.1089 4.12223 21.5596 6 21.5596ZM15.8762 2.83959C13.8754 0.499433 10.1246 0.499436 8.12382 2.83959L2.12383 9.85728C1.39693 10.7075 1 11.7706 1 12.8673V18.3194C1 20.9511 3.23858 23.0845 6 23.0845H7.9C8.78366 23.0845 9.5 22.4018 9.5 21.5596V17.8429C9.5 17.3165 9.94771 16.8898 10.5 16.8898H13.5C14.0523 16.8898 14.5 17.3165 14.5 17.8429V21.5596C14.5 22.4018 15.2163 23.0845 16.1 23.0845H18C20.7614 23.0845 23 20.9511 23 18.3194V12.8673C23 11.7706 22.6031 10.7075 21.8762 9.85728L15.8762 2.83959Z" fill="black"/>
</svg>
