<svg width="23" height="22" viewBox="0 0 23 22" fill="none" xmlns="http://www.w3.org/2000/svg">
<g clip-path="url(#clip0_2758_25961)">
<path d="M6.57435 5.00671C6.25707 4.68917 5.7423 4.68917 5.42502 5.00671C4.24699 6.18474 3.66798 7.8258 3.83625 9.5094C3.87823 9.92882 4.23156 10.2415 4.64419 10.2415C4.6713 10.2415 4.69863 10.2401 4.72575 10.2374C5.17253 10.1927 5.49845 9.79412 5.45376 9.34763C5.33401 8.15116 5.7426 6.98778 6.57435 6.15599C6.89189 5.83876 6.89189 5.32395 6.57435 5.00671Z" fill="black"/>
<path d="M9.79311 0C4.66887 0 0.5 4.16887 0.5 9.29311C0.5 14.4173 4.66887 18.5862 9.79311 18.5862C14.9173 18.5862 19.0862 14.4173 19.0862 9.29311C19.0862 4.16887 14.9173 0 9.79311 0ZM9.79311 16.9606C5.56516 16.9606 2.12564 13.5211 2.12564 9.29311C2.12564 5.06516 5.56516 1.62564 9.79311 1.62564C14.0208 1.62564 17.4606 5.06516 17.4606 9.29311C17.4606 13.5211 14.0211 16.9606 9.79311 16.9606Z" fill="black"/>
<path d="M22.2617 20.6123L16.3553 14.7059C16.0377 14.3884 15.5235 14.3884 15.2059 14.7059C14.8884 15.0232 14.8884 15.538 15.2059 15.8553L21.1124 21.7617C21.2711 21.9204 21.4789 21.9998 21.687 21.9998C21.8951 21.9998 22.1029 21.9204 22.2617 21.7617C22.5792 21.4444 22.5792 20.9296 22.2617 20.6123Z" fill="black"/>
</g>
<defs>
<clipPath id="clip0_2758_25961">
<rect width="22" height="22" fill="white" transform="translate(0.5)"/>
</clipPath>
</defs>
</svg>
